<svg id="Line" xmlns="http://www.w3.org/2000/svg" viewBox="0 0 24 24" width="48" height="48"><path id="primary" d="M13,15H11V13h2ZM16,4a1,1,0,0,0-1-1H9A1,1,0,0,0,8,4V7h8Zm5,16V8a1,1,0,0,0-1-1H4A1,1,0,0,0,3,8V20a1,1,0,0,0,1,1H20A1,1,0,0,0,21,20Z" style="fill: none; stroke: rgb(0, 0, 0); stroke-linecap: round; stroke-linejoin: round; stroke-width: 1;"></path><path id="primary-2" data-name="primary" d="M11,14H8.64A4,4,0,0,1,5,11.58L3.18,7.43" style="fill: none; stroke: rgb(0, 0, 0); stroke-linecap: round; stroke-linejoin: round; stroke-width: 1;"></path><path id="primary-3" data-name="primary" d="M20.82,7.43,19,11.58A4,4,0,0,1,15.36,14H13" style="fill: none; stroke: rgb(0, 0, 0); stroke-linecap: round; stroke-linejoin: round; stroke-width: 1;"></path></svg>